# xmcd CD database file
#
# Track frame offsets:
#	150
#	15455
#	35140
#	52530
#	68720
#	84217
#	99292
#	112300
#	123605
#	142760
#	158980
#	174712
#	188437
#	203452
#	220745
#
# Disc length: 3137 seconds
#
# Revision: 18
# Processed by: cddbd v1.5.2PL0 Copyright (c) Steve Scherf et al.
# Submitted via: jetAudio 7
#
DISCID=bc0c3f0f
DTITLE=George Strait - Latest Greatest Straitest Hits
DYEAR=2000
DGENRE=Country
TTITLE0=The Best Day
TTITLE1=Murder On Music Row
TTITLE2=Carrying Your Love With Me
TTITLE3=Adalida
TTITLE4=Lead On
TTITLE5=Carried Away
TTITLE6=Blue Clear Sky
TTITLE7=We Really Shouldn't Be Doing This
TTITLE8=I Can Still Make Cheyenne
TTITLE9=True
TTITLE10=King Of The Mountain
TTITLE11=Round About Way
TTITLE12=You Can't Make A Heart Love Somebody
TTITLE13=One Night At A Time
TTITLE14=Today My World Slipped Away
EXTD=
EXTT0=
EXTT1=
EXTT2=
EXTT3=
EXTT4=
EXTT5=
EXTT6=
EXTT7=
EXTT8=
EXTT9=
EXTT10=
EXTT11=
EXTT12=
EXTT13=
EXTT14=
PLAYORDER=
